<svg width="200" height="200" viewBox="0 0 200 200" fill="none" xmlns="http://www.w3.org/2000/svg">
<path d="M66.8952 161.04C66.8952 161.867 65.9677 162.529 64.7984 162.529C63.4677 162.653 62.5403 161.991 62.5403 161.04C62.5403 160.213 63.4677 159.551 64.6371 159.551C65.8468 159.427 66.8952 160.089 66.8952 161.04ZM54.3548 159.179C54.0726 160.006 54.879 160.957 56.0887 161.205C57.1371 161.619 58.3468 161.205 58.5887 160.378C58.8306 159.551 58.0645 158.6 56.8548 158.228C55.8065 157.938 54.6371 158.352 54.3548 159.179ZM72.1774 158.476C71.0081 158.765 70.2016 159.551 70.3226 160.502C70.4435 161.329 71.4919 161.867 72.7016 161.577C73.871 161.288 74.6774 160.502 74.5564 159.675C74.4355 158.889 73.3468 158.352 72.1774 158.476ZM98.7097 0C42.7823 0 0 43.5477 0 100.908C0 146.772 28.1452 186.019 68.3468 199.831C73.5081 200.783 75.3226 197.516 75.3226 194.827C75.3226 192.263 75.2016 178.12 75.2016 169.435C75.2016 169.435 46.9758 175.638 41.0484 157.111C41.0484 157.111 36.4516 145.076 29.8387 141.975C29.8387 141.975 20.6048 135.482 30.4839 135.606C30.4839 135.606 40.5242 136.433 46.0484 146.276C54.879 162.239 69.6774 157.649 75.4436 154.919C76.371 148.302 78.9919 143.712 81.8952 140.982C59.3548 138.418 36.6129 135.068 36.6129 95.2839C36.6129 83.911 39.6774 78.2039 46.129 70.9253C45.0806 68.2372 41.6532 57.1538 47.1774 42.8447C55.6048 40.1565 75 54.0107 75 54.0107C83.0645 51.6948 91.7339 50.4955 100.323 50.4955C108.911 50.4955 117.581 51.6948 125.645 54.0107C125.645 54.0107 145.04 40.1152 153.468 42.8447C158.992 57.1951 155.565 68.2372 154.516 70.9253C160.968 78.2453 164.919 83.9524 164.919 95.2839C164.919 135.192 141.169 138.377 118.629 140.982C122.339 144.249 125.484 150.453 125.484 160.171C125.484 174.108 125.363 191.354 125.363 194.745C125.363 197.433 127.218 200.7 132.339 199.749C172.661 186.019 200 146.772 200 100.908C200 43.5477 154.637 0 98.7097 0ZM39.1935 142.636C38.6694 143.05 38.7903 144.001 39.4758 144.787C40.121 145.449 41.0484 145.738 41.5726 145.2C42.0968 144.787 41.9758 143.836 41.2903 143.05C40.6452 142.388 39.7177 142.099 39.1935 142.636ZM34.8387 139.287C34.5565 139.824 34.9597 140.486 35.7661 140.899C36.4113 141.313 37.2177 141.189 37.5 140.61C37.7823 140.072 37.379 139.411 36.5726 138.997C35.7661 138.749 35.121 138.873 34.8387 139.287ZM47.9032 154.009C47.2581 154.547 47.5 155.788 48.4274 156.573C49.3548 157.524 50.5242 157.649 51.0484 156.987C51.5726 156.449 51.3306 155.209 50.5242 154.423C49.6371 153.472 48.4274 153.348 47.9032 154.009ZM43.3065 147.93C42.6613 148.343 42.6613 149.419 43.3065 150.37C43.9516 151.321 45.0403 151.735 45.5645 151.321C46.2097 150.783 46.2097 149.708 45.5645 148.757C45 147.806 43.9516 147.392 43.3065 147.93Z" fill="white"/>
</svg>
