<svg width="200" height="200" viewBox="0 0 200 200" fill="none" xmlns="http://www.w3.org/2000/svg">
<path d="M185.714 0H14.2411C6.38393 0 0 6.47322 0 14.4196V185.58C0 193.527 6.38393 200 14.2411 200H185.714C193.571 200 200 193.527 200 185.58V14.4196C200 6.47322 193.571 0 185.714 0ZM60.4464 171.429H30.8036V75.9821H60.4911V171.429H60.4464ZM45.625 62.9464C36.1161 62.9464 28.4375 55.2232 28.4375 45.7589C28.4375 36.2946 36.1161 28.5714 45.625 28.5714C55.0893 28.5714 62.8125 36.2946 62.8125 45.7589C62.8125 55.2679 55.1339 62.9464 45.625 62.9464ZM171.562 171.429H141.92V125C141.92 113.929 141.696 99.6875 126.518 99.6875C111.071 99.6875 108.705 111.741 108.705 124.196V171.429H79.0625V75.9821H107.5V89.0178H107.902C111.875 81.5178 121.562 73.6161 135.982 73.6161C165.982 73.6161 171.562 93.3928 171.562 119.107V171.429Z" fill="white"/>
</svg>
