<svg width="25" height="25" viewBox="0 0 25 25" fill="none" xmlns="http://www.w3.org/2000/svg">
<path d="M8.10059 19.9775C8.10059 20.0752 7.98828 20.1533 7.84668 20.1533C7.68555 20.168 7.57324 20.0898 7.57324 19.9775C7.57324 19.8799 7.68555 19.8018 7.82715 19.8018C7.97363 19.7871 8.10059 19.8652 8.10059 19.9775ZM6.58203 19.7578C6.54785 19.8555 6.64551 19.9678 6.79199 19.9971C6.91895 20.0459 7.06543 19.9971 7.09473 19.8994C7.12402 19.8018 7.03125 19.6895 6.88477 19.6455C6.75781 19.6113 6.61621 19.6602 6.58203 19.7578ZM8.74023 19.6748C8.59863 19.709 8.50098 19.8018 8.51562 19.9141C8.53027 20.0117 8.65723 20.0752 8.80371 20.041C8.94531 20.0068 9.04297 19.9141 9.02832 19.8164C9.01367 19.7236 8.88184 19.6602 8.74023 19.6748ZM11.9531 0.963867C5.18066 0.963867 0 6.10547 0 12.8779C0 18.293 3.4082 22.9268 8.27637 24.5576C8.90137 24.6699 9.12109 24.2842 9.12109 23.9668C9.12109 23.6641 9.10645 21.9941 9.10645 20.9688C9.10645 20.9688 5.68848 21.7012 4.9707 19.5137C4.9707 19.5137 4.41406 18.0928 3.61328 17.7266C3.61328 17.7266 2.49512 16.96 3.69141 16.9746C3.69141 16.9746 4.90723 17.0723 5.57617 18.2344C6.64551 20.1191 8.4375 19.5771 9.13574 19.2549C9.24805 18.4736 9.56543 17.9316 9.91699 17.6094C7.1875 17.3066 4.43359 16.9111 4.43359 12.2139C4.43359 10.8711 4.80469 10.1973 5.58594 9.33789C5.45898 9.02051 5.04395 7.71191 5.71289 6.02246C6.7334 5.70508 9.08203 7.34082 9.08203 7.34082C10.0586 7.06738 11.1084 6.92578 12.1484 6.92578C13.1885 6.92578 14.2383 7.06738 15.2148 7.34082C15.2148 7.34082 17.5635 5.7002 18.584 6.02246C19.2529 7.7168 18.8379 9.02051 18.7109 9.33789C19.4922 10.2021 19.9707 10.876 19.9707 12.2139C19.9707 16.9258 17.0947 17.3018 14.3652 17.6094C14.8145 17.9951 15.1953 18.7275 15.1953 19.875C15.1953 21.5205 15.1807 23.5566 15.1807 23.957C15.1807 24.2744 15.4053 24.6602 16.0254 24.5479C20.9082 22.9268 24.2188 18.293 24.2188 12.8779C24.2188 6.10547 18.7256 0.963867 11.9531 0.963867ZM4.74609 17.8047C4.68262 17.8535 4.69727 17.9658 4.78027 18.0586C4.8584 18.1367 4.9707 18.1709 5.03418 18.1074C5.09766 18.0586 5.08301 17.9463 5 17.8535C4.92188 17.7754 4.80957 17.7412 4.74609 17.8047ZM4.21875 17.4092C4.18457 17.4727 4.2334 17.5508 4.33105 17.5996C4.40918 17.6484 4.50684 17.6338 4.54102 17.5654C4.5752 17.502 4.52637 17.4238 4.42871 17.375C4.33105 17.3457 4.25293 17.3604 4.21875 17.4092ZM5.80078 19.1475C5.72266 19.2109 5.75195 19.3574 5.86426 19.4502C5.97656 19.5625 6.11816 19.5771 6.18164 19.499C6.24512 19.4355 6.21582 19.2891 6.11816 19.1963C6.01074 19.084 5.86426 19.0693 5.80078 19.1475ZM5.24414 18.4297C5.16602 18.4785 5.16602 18.6055 5.24414 18.7178C5.32227 18.8301 5.4541 18.8789 5.51758 18.8301C5.5957 18.7666 5.5957 18.6396 5.51758 18.5273C5.44922 18.415 5.32227 18.3662 5.24414 18.4297Z" fill="white"/>
</svg>
