<svg width="24" height="25" viewBox="0 0 24 25" fill="none" xmlns="http://www.w3.org/2000/svg">
<path d="M22.2857 0.963867H1.70893C0.766071 0.963867 0 1.74065 0 2.69422V23.2335C0 24.1871 0.766071 24.9639 1.70893 24.9639H22.2857C23.2286 24.9639 24 24.1871 24 23.2335V2.69422C24 1.74065 23.2286 0.963867 22.2857 0.963867ZM7.25357 21.5353H3.69643V10.0817H7.25893V21.5353H7.25357ZM5.475 8.51744C4.33393 8.51744 3.4125 7.59065 3.4125 6.45494C3.4125 5.31922 4.33393 4.39244 5.475 4.39244C6.61071 4.39244 7.5375 5.31922 7.5375 6.45494C7.5375 7.59601 6.61607 8.51744 5.475 8.51744ZM20.5875 21.5353H17.0304V15.9639C17.0304 14.6353 17.0036 12.9264 15.1821 12.9264C13.3286 12.9264 13.0446 14.3728 13.0446 15.8674V21.5353H9.4875V10.0817H12.9V11.646H12.9482C13.425 10.746 14.5875 9.7978 16.3179 9.7978C19.9179 9.7978 20.5875 12.171 20.5875 15.2567V21.5353Z" fill="white"/>
</svg>
